<svg id="Слой_1" data-name="Слой 1" xmlns="http://www.w3.org/2000/svg" viewBox="0 0 1923.23 669.21"><defs><style>.cls-1,.cls-10,.cls-11,.cls-12,.cls-13,.cls-14,.cls-15,.cls-16,.cls-17,.cls-18,.cls-19,.cls-2,.cls-20,.cls-21,.cls-22,.cls-23,.cls-24,.cls-25,.cls-3,.cls-4,.cls-5,.cls-6,.cls-7,.cls-8,.cls-9{fill:none;}.cls-1{stroke:#000;}.cls-1,.cls-10,.cls-11,.cls-12,.cls-13,.cls-14,.cls-15,.cls-16,.cls-17,.cls-18,.cls-19,.cls-2,.cls-20,.cls-21,.cls-22,.cls-23,.cls-24,.cls-25,.cls-4,.cls-5,.cls-6,.cls-7,.cls-8,.cls-9{stroke-miterlimit:10;}.cls-2{stroke:lime;}.cls-3{stroke:#0bfa01;stroke-miterlimit:10;stroke-width:1.13px;}.cls-4{stroke:#15f603;stroke-width:1.26px;}.cls-5{stroke:#20f104;stroke-width:1.39px;}.cls-6{stroke:#2bec05;stroke-width:1.52px;}.cls-7{stroke:#36e807;stroke-width:1.65px;}.cls-8{stroke:#40e308;stroke-width:1.78px;}.cls-9{stroke:#4bde09;stroke-width:1.91px;}.cls-10{stroke:#56d90a;stroke-width:2.04px;}.cls-11{stroke:#61d50c;stroke-width:2.17px;}.cls-12{stroke:#6bd00d;stroke-width:2.3px;}.cls-13{stroke:#76cb0e;stroke-width:2.43px;}.cls-14{stroke:#81c710;stroke-width:2.57px;}.cls-15{stroke:#8cc211;stroke-width:2.7px;}.cls-16{stroke:#96bd12;stroke-width:2.83px;}.cls-17{stroke:#a1b914;stroke-width:2.96px;}.cls-18{stroke:#acb415;stroke-width:3.09px;}.cls-19{stroke:#b7af16;stroke-width:3.22px;}.cls-20{stroke:#c1aa17;stroke-width:3.35px;}.cls-21{stroke:#cca619;stroke-width:3.48px;}.cls-22{stroke:#d7a11a;stroke-width:3.61px;}.cls-23{stroke:#e29c1b;stroke-width:3.74px;}.cls-24{stroke:#ec981d;stroke-width:3.87px;}.cls-25{stroke:#f7931e;stroke-width:4px;}</style></defs><path class="cls-1" d="M68.8,398.74" transform="translate(2.9 -265.55)"/><path class="cls-1" d="M1919.42,825.43" transform="translate(2.9 -265.55)"/><path class="cls-1" d="M1919.42,677.69" transform="translate(2.9 -265.55)"/><path class="cls-2" d="M-1.35,285.59C60,253.33,154.83,261.49,210.5,306.5c62.59,50.61,88.54,136.76,130,205.78s86.68,173.92,162,202.22c88.24,33.14,174.85-72.4,255-122s142.51-129.63,224-177,201.8-73.32,287-33c86.83,41.09,112.53,264.73,148,354s77.22,130,161,177c82.42,46.23,216.47,8.88,290.67-49.65a298.37,298.37,0,0,0,51.26-52" transform="translate(2.9 -265.55)"/><path class="cls-3" d="M-1.35,296.71c29.9-13.58,68.14-18.39,106-15.12,39.62,3.44,78.75,15.91,108,37.36,17.31,12.75,32.06,27.91,45.2,44.55,35.65,45,60.28,100.47,92.1,149.22C393,578.7,438.41,680.78,513,709.46c37.26,14.29,74.22,4.28,110.53-15.49C672,667.62,719.48,624.39,765,598.44c63.19-36.08,115.74-90.91,175.23-135.83a502.85,502.85,0,0,1,47.72-32.34c73.31-43.17,177.17-70.84,258.18-47.38a197.8,197.8,0,0,1,22.66,8.1c54.71,23.35,86.42,116.85,112.18,205.07,14.73,50.51,27.5,99.12,41.06,131.11s27.59,58,44.22,80.22c28.07,37.63,63.8,65.06,115.52,94.87,40.66,23.6,93.61,26.76,145.47,17.61,52.4-9.24,103.39-31.9,140.83-60.28,5.91-4.48,11.61-9.21,17.13-14.1a291.64,291.64,0,0,0,34.27-36.26" transform="translate(2.9 -265.55)"/><path class="cls-4" d="M-1.36,307.84C28.49,296.42,67,292.92,105.11,296.35c40,3.62,79.61,15.09,109.66,35,17.75,11.79,33,25.9,46.69,41.38,37.27,41.75,64.49,93.25,98,140.39,44.65,62.91,90.27,162.18,164.12,191.26,36.73,14.38,73.14,5.6,108.94-12.53,47.86-24.14,94.81-64,139.94-87.53,62.71-32.75,115.36-83.8,174.61-127.44,15.27-11.27,30.94-22.11,47.3-31.89,72.25-43.11,173.26-73.06,252.44-52.68a214.38,214.38,0,0,1,22.25,7.12c54.23,20.57,87.13,107.61,114.64,191.78,15.71,48.18,29.62,95.09,43.82,126.58,14,31.09,28.11,56.62,44.75,78.6C1500,833.31,1535.44,860.88,1586,891c40.13,23.93,91.82,28.2,142.38,20.79,51.78-7.59,101.72-29,139.55-56.49,5.9-4.29,11.58-8.85,17.13-13.56a279.85,279.85,0,0,0,34.4-35.12" transform="translate(2.9 -265.55)"/><path class="cls-5" d="M-1.36,319c29.78-9.24,68.55-11.44,107-7.85,40.39,3.79,80.42,14.31,111.27,32.74,18.17,10.86,33.86,23.93,48.18,38.2,38.79,38.66,68.67,86,103.8,131.56C415.06,573.46,461,669.93,534.05,699.39c36.19,14.47,72.06,6.93,107.35-9.57,47.21-21.92,93.68-58.36,138.47-79.51,62.22-29.42,115-76.7,174-119.07,15.18-10.93,30.71-21.63,46.88-31.44,71.18-43,169.37-75.28,246.7-58a226,226,0,0,1,21.83,6.14c53.79,17.78,87.84,98.36,117.1,178.47,16.7,45.87,31.74,91.07,46.6,122.07,14.45,30.13,28.66,55.22,45.28,77,27.53,36,62.57,63.91,112,94.29,39.58,24.34,90.06,29.66,139.3,24,51.19-5.92,100-26,138.27-52.7,5.89-4.1,11.56-8.5,17.13-13a268.25,268.25,0,0,0,34.53-34" transform="translate(2.9 -265.55)"/><path class="cls-6" d="M-1.36,330.09c29.71-7.07,68.75-8,107.5-4.22,40.78,4,81.24,13.53,112.89,30.43,18.6,9.93,34.78,21.94,49.67,35,40.4,35.51,72.81,78.79,109.66,122.74,47.63,56.79,93.86,150.45,166.2,180.29,35.66,14.57,71,8.26,105.76-6.6,46.58-19.71,92.56-52.76,137-71.51,61.73-26.09,114.59-69.58,173.36-110.69,15.08-10.59,30.47-21.14,46.45-31,70.12-43,165.49-77.52,241-63.26,7.3,1.38,14.42,3.19,21.41,5.16,53.4,15,88.56,89.12,119.56,165.18,17.69,43.55,33.84,87,49.38,117.54,14.86,29.18,29.19,53.85,45.8,75.35,27.25,35.28,61.93,63.38,110.19,94,39,24.75,88.32,31.16,136.21,27.15,50.63-4.25,98.34-23.12,137-48.9,5.88-3.92,11.55-8.15,17.14-12.49a252.86,252.86,0,0,0,34.66-32.83" transform="translate(2.9 -265.55)"/><path class="cls-7" d="M-1.36,341.21c29.64-4.89,69-4.48,108-.58,41.17,4.14,82,12.76,114.52,28.12a279.45,279.45,0,0,1,51.15,31.84c42,32.35,76.9,71.56,115.51,113.91,49,53.75,95.6,144.74,167.25,174.81,35.08,14.73,69.88,9.52,104.17-3.63,45.89-17.6,91.43-47.15,135.53-63.5C856,599.41,909,559.7,967.52,519.87c15-10.26,30.25-20.67,46-30.53,69-42.9,161.62-79.76,235.21-68.56,7.15,1.09,14.12,2.6,21,4.18,53,12.2,89.26,79.88,122,151.89,18.67,41.22,35.92,83,52.15,113,15.26,28.23,29.71,52.48,46.32,73.72,27,34.51,61.29,62.87,108.41,93.71,38.46,25.18,86.61,32.69,133.13,30.33,50.1-2.54,96.64-20.19,135.7-45.1,5.86-3.74,11.53-7.79,17.14-11.95a241.07,241.07,0,0,0,34.79-31.68" transform="translate(2.9 -265.55)"/><path class="cls-8" d="M-1.36,352.34c29.57-2.72,69.15-1,108.53,3.05,41.55,4.31,82.85,12,116.13,25.81a304.18,304.18,0,0,1,52.64,28.66c43.63,29.19,80.94,64.33,121.37,105.08,50.33,50.73,97.37,138.9,168.28,169.34,34.55,14.83,68.8,10.82,102.58-.67,45.26-15.41,90.31-41.55,134.07-55.5,60.76-19.43,113.83-55.37,172.11-93.93,14.9-9.92,30-20.19,45.62-30.07,68-42.84,157.77-82,229.46-73.86,7,.79,13.84,2,20.59,3.2,52.7,9.38,90,70.64,124.48,138.6,19.65,38.9,38,79,54.92,108.48,15.65,27.28,30.24,51.11,46.85,72.1,26.69,33.74,60.65,62.36,106.64,93.42,37.9,25.6,85,30.17,130,33.51,49.47,3.67,94.92-17.29,134.42-41.31,5.84-3.55,11.5-7.44,17.13-11.4a229.51,229.51,0,0,0,34.93-30.55" transform="translate(2.9 -265.55)"/><path class="cls-9" d="M-1.36,363.46c29.5-.54,69.35,2.47,109,6.69,41.95,4.48,83.65,11.22,117.75,23.5a337.28,337.28,0,0,1,54.13,25.48c45.26,26,84.93,57.11,127.23,96.26,51.57,47.73,99.15,133.05,169.32,163.85,34,14.93,67.72,12.14,101,2.29,44.62-13.2,89.19-35.93,132.61-47.48,60.27-16.11,113.44-48.27,171.48-85.56,14.81-9.58,29.8-19.7,45.2-29.61,66.92-42.78,153.93-84.28,223.72-79.16,6.86.5,13.56,1.4,20.17,2.22,52.41,6.54,90.69,61.4,126.94,125.3,20.64,36.59,40.06,74.94,57.7,104,16,26.33,30.77,49.73,47.37,70.47,26.4,33,60,61.86,104.86,93.13,37.34,26,83.56,31.33,127,36.69,48.76,6,93.2-14.39,133.13-37.51,5.83-3.38,11.49-7.09,17.14-10.87a219.72,219.72,0,0,0,35.06-29.4" transform="translate(2.9 -265.55)"/><path class="cls-10" d="M-1.36,374.59c29.43,1.63,69.55,5.94,109.55,10.32,42.34,4.66,84.45,10.46,119.38,21.19a382.32,382.32,0,0,1,55.61,22.31c46.89,22.85,88.87,49.91,133.08,87.42C469,560.6,517.2,643,586.62,674.2c33.47,15,66.65,13.46,99.4,5.26,44-11,88.06-30.33,131.13-39.48C877,627.2,930.22,598.83,988,562.81c14.72-9.25,29.57-19.23,44.78-29.17,65.86-42.7,150.1-86.56,218-84.45,6.71.21,13.28.79,19.76,1.24,52.15,3.66,91.39,52.16,129.4,112,21.62,34.26,42.09,70.91,60.47,99.44,16.36,25.4,31.28,48.36,47.89,68.85,26.11,32.2,59.35,61.37,103.09,92.84,36.77,26.46,82.13,32.63,123.87,39.87,48,8.32,91.47-11.5,131.85-33.72,5.81-3.2,11.46-6.74,17.14-10.33a209.86,209.86,0,0,0,35.19-28.26" transform="translate(2.9 -265.55)"/><path class="cls-11" d="M-1.36,385.71c29.37,3.81,69.75,9.43,110.07,14,42.72,4.83,85.23,9.7,121,18.88a445.67,445.67,0,0,1,57.1,19.13c48.53,19.68,92.77,42.74,138.94,78.6,53.87,41.84,102.72,121.34,171.4,152.89,32.92,15.12,65.57,14.77,97.8,8.22,43.35-8.81,86.93-24.72,129.67-31.47,59.31-9.45,112.68-34,170.24-68.8,14.62-8.91,29.33-18.75,44.35-28.71,64.8-42.64,146.37-86.34,212.24-89.75,6.55-.34,13,.8,19.34.27,51.74-4.4,92.1,42.91,131.86,98.71,22.61,31.94,44.12,66.88,63.25,94.91,16.69,24.46,31.8,47,48.42,67.23,25.81,31.43,58.69,60.88,101.3,92.55,36.2,26.9,79.94,39.18,120.79,43,48.24,4.56,89.72-8.61,130.57-29.92,5.78-3,11.44-6.39,17.14-9.79a200,200,0,0,0,35.32-27.11" transform="translate(2.9 -265.55)"/><path class="cls-12" d="M-1.36,396.84c29.3,6,70,12.9,110.58,17.59,43.11,5,86,8.95,122.61,16.57A533.7,533.7,0,0,1,290.42,447c50.17,16.5,96.62,35.61,144.79,69.77,55,39,104.52,115.49,172.44,147.41,32.39,15.22,64.5,16.1,96.22,11.19,42.71-6.61,85.8-19.12,128.2-23.47,58.82-6.12,112.36-26.82,169.61-60.42,14.55-8.54,29.11-18.27,43.93-28.25,63.74-42.57,142.49-91.18,206.5-95,6.41-.39,12.79.2,18.92-.71,51.2-7.63,92.82,33.68,134.32,85.41,23.6,29.63,46.14,62.87,66,90.39,17,23.54,32.33,45.63,49,65.61,25.51,30.66,58,60.4,99.52,92.26,35.64,27.35,78.31,40.92,117.71,46.22,47.82,6.44,88-5.74,129.28-26.12,5.77-2.85,11.42-6,17.15-9.26a191,191,0,0,0,35.45-26" transform="translate(2.9 -265.55)"/><path class="cls-13" d="M-1.36,408c29.23,8.16,70.15,16.38,111.09,21.23,43.5,5.17,86.82,8.21,124.23,14.26,21.45,3.47,41.26,7.94,60.08,12.77,51.82,13.32,100.44,28.52,150.65,60.95,56,36.15,106.3,109.62,173.48,141.92,31.85,15.32,63.42,17.42,94.62,14.15,42.09-4.4,84.68-13.5,126.73-15.45,58.34-2.8,112-19.71,169-52C1023,597.54,1037.39,588,1052,578c62.68-42.51,138.69-93.53,200.76-100.35,6.27-.69,12.45-1.07,18.5-1.69,51.53-5.27,93.53,24.44,136.79,72.12,24.57,27.3,48.12,58.86,68.79,85.87,17.31,22.62,32.84,44.26,49.47,64,25.21,29.91,57.36,59.94,97.75,92,35.05,27.8,76.68,42.71,114.62,49.4,47.41,8.36,86.21-2.88,128-22.33,5.74-2.67,11.4-5.69,17.15-8.72a182.58,182.58,0,0,0,35.58-24.82" transform="translate(2.9 -265.55)"/><path class="cls-14" d="M-1.36,419.09C27.8,429.42,69,439,110.25,444c43.88,5.35,87.6,7.47,125.85,11.95,21.84,2.56,42.19,5.93,61.56,9.59,53.47,10.12,104.23,21.48,156.5,52.12,57,33.39,108.09,103.76,174.52,136.45,31.31,15.4,62.36,18.74,93,17.11,41.45-2.2,83.55-7.9,125.26-7.45,57.85.54,111.6-12.6,168.36-43.66,14.37-7.86,28.65-17.31,43.09-27.34,61.61-42.45,134.9-95.91,195-105.65,6.12-1,12.18-1.71,18.09-2.67,51.33-8.36,94.32,15.11,139.24,58.83,25.61,24.93,50.11,54.86,71.57,81.34,17.6,21.71,33.36,42.89,50,62.35,24.91,29.15,56.69,59.48,96,91.69,34.48,28.26,75.06,44.55,111.54,52.58,47,10.34,84.44,0,126.72-18.54,5.71-2.5,11.37-5.34,17.15-8.17a174.53,174.53,0,0,0,35.71-23.69" transform="translate(2.9 -265.55)"/><path class="cls-15" d="M-1.36,430.21c29.09,12.51,70.55,23.34,112.12,28.5,44.27,5.52,88.39,6.74,127.47,9.64,22.25,1.65,43.12,3.92,63,6.42,55.12,6.91,108,14.48,162.36,43.28C521.55,548.73,573.52,616,639.2,649c30.77,15.5,61.28,19.79,91.44,20.08,40.82.39,82.43-2.29,123.8.56,57.36,3.86,111.21-5.49,167.74-35.29,14.27-7.52,28.42-16.83,42.67-26.88,60.54-42.38,131.09-98.32,189.26-110.95,6-1.29,11.91-2.35,17.68-3.65,51.13-11.51,95,5.86,141.7,45.54,26.6,22.6,52.07,50.87,74.35,76.81,17.87,20.82,33.87,41.53,50.51,60.73,24.61,28.39,56,59,94.2,91.4,33.89,28.73,73.42,46.44,108.45,55.75,46.59,12.39,82.67,2.79,125.43-14.74,5.69-2.33,11.36-5,17.15-7.63a167.41,167.41,0,0,0,35.85-22.54" transform="translate(2.9 -265.55)"/><path class="cls-16" d="M-1.36,441.34c29,14.67,70.75,26.81,112.63,32.13,44.66,5.69,89.18,6,129.09,7.33,22.65.75,44.06,1.9,64.54,3.24,56.76,3.7,111.72,7.55,168.21,34.46,58.85,28,111.68,92,176.6,125.48,30.24,15.59,60.22,21.4,89.86,23,40.19,2.22,81.3,3.31,122.33,8.56,56.87,7.19,110.82,1.62,167.11-26.91,14.18-7.18,28.19-16.35,42.25-26.43,59.48-42.31,127.3-100.74,183.52-116.24,5.84-1.6,11.64-3,17.26-4.63,50.9-14.72,95.74-3.38,144.17,32.24,27.57,20.29,54,46.9,77.11,72.29,18.14,19.93,34.39,40.17,51,59.11,24.31,27.63,55.33,58.57,92.42,91.1,33.3,29.21,71.78,48.39,105.37,58.94,46.16,14.5,80.88,5.6,124.15-10.94,5.66-2.17,11.33-4.64,17.15-7.1a159.93,159.93,0,0,0,36-21.4" transform="translate(2.9 -265.55)"/><path class="cls-17" d="M-1.36,452.46c29,16.85,71,30.29,113.15,35.77,45,5.87,90,5.29,130.71,5,23.05-.15,45-.12,66,.06,58.41.48,115.44.69,174.07,25.63,59.78,25.44,113.47,86.15,177.64,120,29.7,15.68,59.14,22.74,88.26,26,39.57,4.45,80.18,8.93,120.86,16.58,56.39,10.52,110.44,8.72,166.49-18.53,14.09-6.85,28-15.87,41.83-26,58.42-42.24,123.49-103.21,177.78-121.53,5.69-1.93,11.36-3.66,16.85-5.61,50.64-18,96.43-12.63,146.62,18.94,28.55,18,55.94,42.95,79.89,67.77,18.39,19,34.9,38.8,51.57,57.48A1242.36,1242.36,0,0,0,1641,744.88,318.47,318.47,0,0,0,1743.3,807c45.71,16.68,79.1,8.39,122.87-7.15,5.63-2,11.3-4.29,17.15-6.56A154,154,0,0,0,1919.43,773" transform="translate(2.9 -265.55)"/><path class="cls-18" d="M-1.36,463.58c28.89,19,71.15,33.78,113.66,39.41,45.43,6,90.76,4.57,132.33,2.71,23.46-1.05,45.91-2.13,67.51-3.12,60.05-2.74,119.15-6.12,179.92,16.81s115.27,80.27,178.68,114.52c29.17,15.76,58.08,24.07,86.68,29,38.93,6.67,79.05,14.53,119.39,24.58,55.9,13.85,110.05,15.82,165.86-10.15,14-6.51,27.74-15.39,41.41-25.52,57.35-42.18,119.67-105.7,172-126.83,5.54-2.24,11.07-4.32,16.43-6.59,50.34-21.32,97.08-21.77,149.08,5.65,29.5,15.7,57.86,39,82.67,63.24,18.63,18.19,35.4,37.45,52.09,55.86,23.68,26.12,53.94,57.7,88.86,90.52,32.1,30.18,68.42,52.41,99.2,65.3,45.21,18.93,77.31,11.16,121.58-3.36,5.61-1.83,11.29-3.94,17.16-6a147.53,147.53,0,0,0,36.24-19.11" transform="translate(2.9 -265.55)"/><path class="cls-19" d="M-1.36,474.71c28.82,21.2,71.35,37.25,114.18,43,45.81,6.21,91.55,3.86,133.94.4,23.87-1.95,46.84-4.15,69-6.3,61.68-6,122.87-12.86,185.78,8,61.63,20.42,117.07,74.39,179.72,109,28.64,15.84,57,25.41,85.08,31.94,38.3,8.9,77.93,20.14,117.93,32.59,55.41,17.17,109.61,22.81,165.24-1.78,13.89-6.2,27.5-14.91,41-25.06,56.29-42.11,115.82-108.22,166.3-132.13,5.39-2.56,10.78-5,16-7.57,50-24.69,97.79-31,151.55-7.64,30.48,13.38,59.76,35.09,85.44,58.71,18.86,17.35,35.91,36.09,52.61,54.23,23.37,25.38,53.24,57.28,87.09,90.24,31.48,30.67,66.69,54.48,96.11,68.47,44.67,21.25,75.51,13.92,120.3.45,5.58-1.68,11.26-3.6,17.16-5.48a142.13,142.13,0,0,0,36.37-18" transform="translate(2.9 -265.55)"/><path class="cls-20" d="M-1.36,485.83c28.75,23.38,71.55,40.73,114.69,46.68,46.2,6.39,92.35,3.15,135.57-1.91,24.27-2.84,47.76-6.18,70.48-9.48C382.7,511.93,446,501.58,511,520.28c62.58,18,118.88,68.5,180.76,103.55,28.11,15.93,55.93,26.76,83.5,34.91,37.66,11.13,76.8,25.74,116.45,40.59,54.94,20.51,109.23,29.92,164.62,6.61,13.8-5.87,27.27-14.43,40.56-24.61,55.23-42.05,112-110.76,160.56-137.43,5.24-2.88,10.48-5.65,15.6-8.55,49.58-28.09,98.5-40.24,154-20.94,31.47,11.06,61.65,31.2,88.21,54.19,19.09,16.52,36.42,34.74,53.14,52.61,23,24.63,52.53,56.85,85.31,89.95,30.87,31.16,64.94,56.58,93,71.65,44.06,23.64,73.71,16.65,119,4.24,5.55-1.52,11.23-3.25,17.16-4.94a136.76,136.76,0,0,0,36.5-16.83" transform="translate(2.9 -265.55)"/><path class="cls-21" d="M-1.36,497c28.68,25.55,71.75,44.2,115.2,50.31,46.59,6.56,93.16,2.44,137.19-4.22,24.68-3.74,48.69-8.2,72-12.65,64.94-12.43,130.32-26.17,197.49-9.68,63.54,15.6,120.68,62.61,181.8,98.08a499,499,0,0,0,81.9,37.86c37,13.37,75.67,31.36,115,48.61,54.45,23.83,108.85,37,164,15,13.71-5.53,27-14,40.14-24.16,54.17-42,108.06-113.3,154.82-142.72,5.08-3.2,10.18-6.32,15.18-9.53,49.13-31.52,99.21-49.48,156.47-34.23,32.45,8.74,63.52,27.33,91,49.66,19.31,15.7,36.92,33.39,53.66,51,22.73,23.89,51.81,56.44,83.53,89.66,30.25,31.67,63.14,58.71,90,74.83,43.38,26.08,71.92,19.36,117.73,8,5.52-1.36,11.21-2.91,17.17-4.4a131.71,131.71,0,0,0,36.62-15.68" transform="translate(2.9 -265.55)"/><path class="cls-22" d="M-1.36,508.08c28.61,27.73,72,47.69,115.72,53.95,47,6.73,94,1.74,138.8-6.53,25.1-4.63,49.6-10.26,73.46-15.83,66.54-15.78,134.07-32.73,203.34-18.51,64.53,13.26,122.56,56.61,182.84,92.6a693.41,693.41,0,0,0,80.32,40.83c36.38,15.6,74.54,37,113.52,56.61,54,27.17,108.46,44.14,163.36,23.36,13.62-5.19,26.82-13.47,39.72-23.7,53.1-41.91,104.13-115.87,149.08-148,4.92-3.52,9.88-7,14.76-10.5,48.61-35,99.92-58.73,158.93-47.53,33.44,6.42,65.39,23.49,93.76,45.14,19.52,14.89,37.42,32,54.19,49.36,22.4,23.15,51.07,56,81.75,89.37,29.6,32.18,61.29,60.85,86.86,78,42.62,28.59,70.12,22,116.45,11.83,5.49-1.22,11.19-2.57,17.17-3.87a127.09,127.09,0,0,0,36.75-14.54" transform="translate(2.9 -265.55)"/><path class="cls-23" d="M-1.36,519.21c28.55,29.9,72.15,51.16,116.23,57.58,47.36,6.9,94.78,1.12,140.43-8.84,25.51-5.47,50.52-12.27,74.94-19,68.17-19,137.84-39.25,209.2-27.33,65.54,10.94,124.35,50.74,183.88,87.11,26.54,16.13,52.66,30.84,78.72,43.8,35.71,17.9,73.42,42.57,112.05,64.62,53.48,30.49,108.08,51.24,162.75,31.73,13.52-4.85,26.58-13,39.29-23.24,52-41.85,100.18-118.44,143.33-153.32,4.76-3.85,9.57-7.66,14.36-11.48,48-38.43,100.63-68,161.38-60.82,34.42,4.09,67.25,19.67,96.54,40.61,19.73,14.11,37.91,30.69,54.71,47.74,22.08,22.41,50.33,55.61,80,89.08,29,32.69,59.4,63,83.78,81.18,41.77,31.15,68.33,24.72,115.17,15.63,5.46-1.06,11.16-2.23,17.16-3.33a123.94,123.94,0,0,0,36.89-13.39" transform="translate(2.9 -265.55)"/><path class="cls-24" d="M-1.36,530.33C27.12,562.41,71,585,115.38,591.55c47.75,7.08,95.58.38,142.05-11.15,25.92-6.38,51.45-14.28,76.43-22.19,69.79-22.17,141.63-45.71,215-36.16,66.59,8.67,126.15,44.87,184.92,81.64,26,16.21,51.59,32.16,77.14,46.76,35.06,20.11,72.29,48.17,110.58,72.62,53,33.82,107.7,58.35,162.12,40.12,13.43-4.52,26.36-12.51,38.88-22.79,51-41.78,96.17-121,137.58-158.62q6.9-6.25,13.94-12.46c47.41-41.89,101.34-77.21,163.85-74.12,35.4,1.78,69.1,15.9,99.3,36.09,20,13.34,38.39,29.37,55.24,46.12,21.72,21.7,49.59,55.21,78.2,88.79,28.3,33.21,57.44,65.16,80.69,84.36,40.82,33.73,66.54,27.36,113.88,19.42,5.44-.91,11.14-1.88,17.17-2.78a120,120,0,0,0,37-12.26" transform="translate(2.9 -265.55)"/><path class="cls-25" d="M-1.36,541.46c28.41,34.25,72.55,58.11,117.26,64.85,74.94,11.29,150.16-13.46,221.58-38.83s145.46-52.14,220.91-45c97.36,9.23,179.44,72.66,261.5,125.87S997.17,806.73,1090.5,777.5c67.35-21.09,120.81-135.94,170.3-186.25s109.27-99.79,179.83-100.85c60-.9,115,34.12,157.84,76.05s109.75,135.6,154,176,70.21,28,129.77,21a116,116,0,0,0,37.15-11.11" transform="translate(2.9 -265.55)"/></svg>