<svg id="Слой_1" data-name="Слой 1" xmlns="http://www.w3.org/2000/svg" viewBox="0 0 1920.98 1082.25"><defs><style>.cls-1,.cls-10,.cls-11,.cls-12,.cls-13,.cls-14,.cls-15,.cls-16,.cls-17,.cls-18,.cls-19,.cls-2,.cls-20,.cls-21,.cls-22,.cls-23,.cls-3,.cls-4,.cls-5,.cls-6,.cls-7,.cls-8,.cls-9{fill:none;stroke-miterlimit:10;}.cls-1{stroke:#000;}.cls-2{stroke:lime;stroke-width:2px;}.cls-3{stroke:#0cf30c;stroke-width:2.1px;}.cls-4{stroke:#18e718;stroke-width:2.19px;}.cls-5{stroke:#24db24;stroke-width:2.29px;}.cls-6{stroke:#31ce31;stroke-width:2.38px;}.cls-7{stroke:#3dc23d;stroke-width:2.48px;}.cls-8{stroke:#49b649;stroke-width:2.57px;}.cls-9{stroke:#5a5;stroke-width:2.67px;}.cls-10{stroke:#619e61;stroke-width:2.76px;}.cls-11{stroke:#6d926d;stroke-width:2.86px;}.cls-12{stroke:#798679;stroke-width:2.95px;}.cls-13{stroke:#867986;stroke-width:3.05px;}.cls-14{stroke:#926d92;stroke-width:3.14px;}.cls-15{stroke:#9e619e;stroke-width:3.24px;}.cls-16{stroke:#a5a;stroke-width:3.33px;}.cls-17{stroke:#b649b6;stroke-width:3.43px;}.cls-18{stroke:#c23dc2;stroke-width:3.52px;}.cls-19{stroke:#ce31ce;stroke-width:3.62px;}.cls-20{stroke:#db24db;stroke-width:3.71px;}.cls-21{stroke:#e718e7;stroke-width:3.81px;}.cls-22{stroke:#f30cf3;stroke-width:3.9px;}.cls-23{stroke:#f0f;stroke-width:4px;}</style></defs><path class="cls-1" d="M1919.42,825.43" transform="translate(0.27 1.54)"/><path class="cls-1" d="M1919.42,677.69" transform="translate(0.27 1.54)"/><path class="cls-2" d="M227,0c22.38,15,55,48.05,68,71,51,90,42.6,147.75,64,234.85S410.46,483.92,479.5,541.19c95.72,79.42,235.9,70.28,357.22,42.88s246.2-69,367.23-40.33c117.63,27.85,210.51,118.14,282.15,215.51S1555,961.21,1657,1026c63,40,255.39,46.47,263,54" transform="translate(0.27 1.54)"/><path class="cls-3" d="M216.24,0C238.3,14.91,270,48.19,283.11,72.18,332.38,162,325.8,222.07,347,308.09c3.11,12.66,6.38,25.23,9.87,37.55,21.3,74.8,50.84,149.81,109.09,199.7,49.15,42.33,110.94,61.55,176.21,64.85,60.75,3.07,123.61-7.7,181.9-22.66q10.19-2.61,20.4-5.33c65.69-17.52,132.55-37.91,199.94-45.48,49.89-5.6,99.42-4.14,147.93,8.75a356.13,356.13,0,0,1,83.2,34.14c68.44,38.48,126.42,97.41,177,160.11q10.92,13.51,21.37,27.21c40.12,52.66,59.66,106.47,85.92,153.88,21.67,39.29,47.73,74.52,94.55,101.4a143.52,143.52,0,0,0,25.59,11c46.13,15.43,116.43,23,169.69,29,37.67,4.25,66.38,7.17,70.3,10.45" transform="translate(0.27 1.54)"/><path class="cls-4" d="M205.48,0c21.75,14.82,52.44,48.33,65.74,73.36,47.61,89.63,42.78,152,63.67,237,3.17,12.88,6.46,25.52,9.95,37.67,21.6,74.64,50.32,150.66,107.5,201.48C501.13,592.84,563,614,628.86,617.27c61.4,3,124.32-9.54,182.48-26.28,6.77-1.93,13.54-3.92,20.31-5.92,65.41-19.46,132.22-41.88,200.34-49.36,50.42-5.53,100.24-2.78,148.65,11.48a359.23,359.23,0,0,1,82.64,36.48c67.78,40.5,124.87,101,176.54,163.81Q1451,761,1461.75,774.61c41,52.08,63.22,104.3,91.75,149.24,23.48,37.25,50.91,70.16,98.28,94.56a148,148,0,0,0,25.93,10c47.07,13.84,117.32,19.87,171.36,25.89,37.19,4.18,65.87,7.33,70.87,11.08" transform="translate(0.27 1.54)"/><path class="cls-5" d="M194.71,0c21.44,14.73,51.18,48.45,64.62,74.55,46,89.37,42.88,154.16,63.49,238,3.22,13.1,6.54,25.8,10,37.79,21.9,74.48,49.72,151.59,105.92,203.25,48.37,44.48,110.41,67.57,176.81,70.74,62.06,3,125-11.4,183.07-29.9q10.11-3.21,20.22-6.52c65.12-21.4,131.89-45.85,200.74-53.23,50.94-5.47,101.06-1.43,149.38,14.2a361.68,361.68,0,0,1,82.07,38.83c67.12,42.5,123.33,104.63,176,167.49q11.37,13.56,22.48,27.07c42.12,51.38,66.89,102.05,97.59,144.59,25.37,35.14,54.13,65.78,102,87.73a156.9,156.9,0,0,0,26.27,8.92c48,12.23,118.22,16.74,173,22.79,36.71,4.1,65.37,7.49,71.45,11.7" transform="translate(0.27 1.54)"/><path class="cls-6" d="M184,0c21.13,14.64,49.93,48.57,63.49,75.73,44.48,89.08,43,156.3,63.31,239.09,3.27,13.33,6.62,26.09,10.11,37.92,22.2,74.32,49.12,152.53,104.33,205,47.94,45.59,110.15,70.57,177.12,73.68C665,634.36,728.05,618.19,786,597.92q10.09-3.49,20.14-7.11c64.84-23.34,131.55-49.83,201.14-57.11,51.46-5.39,101.88-.07,150.1,16.94,29.05,10.15,56.26,24.35,81.52,41.17,66.44,44.51,121.77,108.24,175.5,171.18,7.73,9,15.45,18,23,27,43.09,50.77,70.48,99.85,103.44,139.95,27.18,33.08,57.37,61.37,105.73,80.9a164.81,164.81,0,0,0,26.61,7.85c49,10.61,119.11,13.62,174.7,19.7,36.23,4,64.87,7.66,72,12.33" transform="translate(0.27 1.54)"/><path class="cls-7" d="M173.19,0C194,14.54,221.87,48.68,235.55,76.91c43,88.76,43.07,158.44,63.13,240.15,3.32,13.55,6.67,26.38,10.19,38.05,22.34,74.2,48.51,153.48,102.74,206.8C459.12,608.63,521.5,635.49,589,638.54c63.37,2.85,126.46-15.11,184.23-37.15q10.05-3.81,20-7.71c64.55-25.28,131.22-53.8,201.53-61a325.84,325.84,0,0,1,150.84,19.67c29,10.95,56,26,81,43.52,65.78,46.52,120.22,111.84,175,174.87,7.88,9.06,15.78,18,23.6,26.92,44,50.15,74,97.64,109.27,135.3,29,31,60.65,56.94,109.46,74.07a178.1,178.1,0,0,0,27,6.79c50,9,120,10.49,176.37,16.6,35.75,3.94,64.37,7.82,72.59,13" transform="translate(0.27 1.54)"/><path class="cls-8" d="M162.43,0c20.5,14.45,47.45,48.78,61.23,78.09,41.56,88.4,43.16,160.58,63,241.21,3.37,13.78,6.75,26.67,10.26,38.18,22.63,74,47.9,154.43,101.17,208.57,47.07,47.85,109.62,76.59,177.72,79.58,64,2.8,127.17-17,184.81-40.78q10-4.1,20-8.3c64.26-27.21,130.87-57.78,201.92-64.87A313,313,0,0,1,1134,554.08c28.85,11.75,55.71,27.6,80.39,45.86,65.11,48.54,118.67,115.46,174.48,178.56,8,9.08,16.12,18,24.15,26.85,45,49.55,77.63,95.44,115.11,130.66,30.82,28.94,63.95,52.48,113.19,67.23a190.42,190.42,0,0,0,27.28,5.73c51,7.3,120.92,7.37,178.05,13.51,35.27,3.86,63.86,8,73.16,13.59" transform="translate(0.27 1.54)"/><path class="cls-9" d="M151.67,0c20.18,14.36,46.22,48.87,60.1,79.28,40.17,88,43.25,162.71,62.77,242.26,3.42,14,6.83,27,10.34,38.3,22.91,73.9,47.28,155.41,99.58,210.36,46.63,49,109.36,79.59,178,82.52,64.67,2.74,127.87-18.83,185.39-44.4q10-4.4,19.88-8.9c64-29.15,130.54-61.75,202.32-68.75,53-5.17,104.36,4,152.29,25.14,28.74,12.54,55.43,29.21,79.83,48.2,64.44,50.54,117.11,119.07,174,182.25,8.18,9.09,16.47,18,24.71,26.78,46,48.94,81.2,93.23,121,126,32.62,26.89,67.27,48,116.91,60.41a207.12,207.12,0,0,0,27.62,4.67c52,5.6,121.81,4.25,179.73,10.41,34.78,3.78,63.35,8.15,73.73,14.22" transform="translate(0.27 1.54)"/><path class="cls-10" d="M140.9,0c19.88,14.27,45,49,59,80.46,38.83,87.61,43.35,164.85,62.59,243.33C266,338,269.37,351,272.89,362.21c23.2,73.75,46.65,156.39,98,212.13,46.18,50.14,109.1,82.6,178.33,85.46,65.32,2.69,128.59-20.68,186-48q9.94-4.69,19.79-9.5c63.69-31.08,130.2-65.72,202.72-72.62,53.57-5.1,105.18,5.37,153,27.87,28.65,13.34,55.16,30.84,79.27,50.55,63.77,52.55,115.56,122.67,173.44,185.94,8.33,9.1,16.8,18,25.27,26.7,46.9,48.34,84.75,91,126.79,121.36,34.42,24.83,70.61,43.47,120.64,53.58a227.05,227.05,0,0,0,28,3.6c53,3.88,122.71,1.13,181.4,7.32,34.3,3.7,62.85,8.31,74.3,14.85" transform="translate(0.27 1.54)"/><path class="cls-11" d="M130.14,0C149.7,14.17,174,49.05,188,81.64c37.52,87.19,43.44,167,62.4,244.39,3.54,14.45,7,27.54,10.51,38.55,23.48,73.59,46,157.38,96.4,213.9,45.73,51.3,108.84,85.61,178.64,88.41,66,2.64,129.3-22.53,186.55-51.64q9.91-5,19.71-10.1c63.4-33,129.87-69.69,203.12-76.5,54.09-5,106,6.73,153.74,30.61,28.54,14.13,54.88,32.45,78.7,52.89,63.11,54.56,114,126.28,172.93,189.63,8.48,9.11,17.14,18,25.82,26.62,47.85,47.75,88.31,88.85,132.63,116.72,36.22,22.77,74,38.91,124.37,46.75a251.47,251.47,0,0,0,28.3,2.54c54,2.13,123.6-2,183.07,4.22,33.82,3.62,62.34,8.48,74.87,15.47" transform="translate(0.27 1.54)"/><path class="cls-12" d="M119.38,0C138.63,14.08,162,49.12,176.1,82.82c36.25,86.76,43.53,169.13,62.22,245.45,3.59,14.67,7.07,27.83,10.59,38.68,23.78,73.43,45.36,158.37,94.82,215.68C389,635.08,452.3,671.24,522.66,674c66.63,2.58,130-24.39,187.14-55.27q9.88-5.3,19.63-10.69c63.11-35,129.53-73.67,203.51-80.37,54.61-5,106.82,8.08,154.46,33.33,28.45,14.93,54.61,34.08,78.15,55.23C1228,672.79,1278,746.1,1338,809.53c8.62,9.13,17.47,18,26.37,26.56,48.79,47.16,91.87,86.66,138.48,112.07,38,20.72,77.32,34.32,128.09,39.91a187.49,187.49,0,0,0,28.64,1.48c55-2.22,124.5-5.12,184.74,1.13,33.34,3.54,61.84,8.64,75.44,16.1" transform="translate(0.27 1.54)"/><path class="cls-13" d="M108.62,0c18.93,14,41.47,49.19,55.59,84,35,86.3,43.63,171.26,62,246.5,3.64,14.9,7.15,28.12,10.67,38.81,24.07,73.27,44.71,159.37,93.23,217.45,44.8,53.62,108.31,91.62,179.24,94.3,67.28,2.53,130.72-26.25,187.72-58.89q9.84-5.59,19.54-11.29c62.82-36.9,129.19-77.64,203.9-84.25,55.15-4.89,107.66,9.44,155.2,36.06,28.34,15.73,54.34,35.7,77.58,57.58,61.77,58.59,110.91,133.5,171.89,197,8.78,9.14,17.81,17.94,26.93,26.48,49.72,46.57,95.42,84.48,144.32,107.43,39.81,18.68,80.69,29.69,131.82,33.08,9,.6,18.71.68,29,.42,56.1-1.44,125.4-8.25,186.41-2,32.86,3.46,61.34,8.8,76,16.73" transform="translate(0.27 1.54)"/><path class="cls-14" d="M97.86,0c18.62,13.89,40.31,49.26,54.46,85.19C186.13,171,196,258.59,214.18,332.75c3.69,15.13,7.23,28.4,10.74,38.94C249.3,444.8,269,532.06,316.57,590.91c44.32,54.8,108.05,94.63,179.54,97.25,67.94,2.47,131.44-28.11,188.31-62.52q9.81-5.89,19.45-11.88c62.54-38.84,128.86-81.62,204.3-88.13,55.67-4.81,108.48,10.8,155.92,38.8,28.24,16.52,54.07,37.32,77,59.92,61.1,60.59,109.35,137.1,171.37,200.7,8.93,9.15,18.15,17.92,27.49,26.41,50.65,46,99,82.3,150.15,102.78,41.6,16.63,84.07,27.92,135.55,26.25,9.16-.3,19-.06,29.31-.64,57.13-3.27,126.3-11.38,188.09-5.07,32.38,3.39,60.83,9,76.59,17.36" transform="translate(0.27 1.54)"/><path class="cls-15" d="M87.1,0c18.3,13.8,39.16,49.32,53.33,86.37,32.64,85.37,43.82,175.54,61.68,248.63,3.74,15.34,7.31,28.68,10.82,39.05,24.68,73,43.38,161.39,90.07,221,43.83,56,107.78,97.63,179.84,100.19,68.59,2.41,132.15-30,188.89-66.14q9.76-6.2,19.36-12.48c62.25-40.77,128.52-85.59,204.7-92,56.19-4.74,109.3,12.16,156.65,41.53,28.14,17.32,53.79,38.94,76.46,62.27,60.43,62.6,107.8,140.71,170.86,204.38,9.07,9.17,18.48,17.92,28,26.34,51.58,45.41,102.52,80.14,156,98.13,43.39,14.61,87.52,23.07,139.27,19.43,9.33-.66,19.3-.8,29.65-1.71,58.15-5.11,127.2-14.49,189.76-8.16,31.9,3.31,60.33,9.13,77.16,18" transform="translate(0.27 1.54)"/><path class="cls-16" d="M76.33,0c18,13.71,38.05,49.38,52.21,87.55C160,172.44,172.45,265.23,190,337.24c3.8,15.57,7.4,29,10.9,39.18,25,72.79,42.71,162.41,88.48,222.78,43.34,57.16,107.52,100.64,180.15,103.13,69.24,2.37,132.85-31.81,189.46-69.76,6.5-4.32,12.93-8.7,19.29-13.07,62-42.71,128.18-89.56,205.09-95.89,56.72-4.67,110.12,13.52,157.37,44.26,28,18.12,53.52,40.57,75.9,64.61,59.77,64.62,106.25,144.33,170.34,208.08,9.23,9.18,18.82,17.91,28.6,26.26,52.5,44.84,106.07,78,161.84,93.49,45.18,12.57,90.75,15.64,143,12.59,9.55-.55,19.59-1.54,30-2.76,59.16-7,128.09-17.62,191.43-11.26,31.42,3.23,59.83,9.29,77.73,18.62" transform="translate(0.27 1.54)"/><path class="cls-17" d="M65.57,0c17.68,13.62,36.94,49.43,51.08,88.74,30.37,84.4,44,179.81,61.32,250.74,3.85,15.8,7.48,29.26,11,39.31,25.3,72.62,42,163.43,86.89,224.56C318.68,661.69,383.1,707,456.29,709.42c69.9,2.31,133.57-33.67,190.05-73.38q9.7-6.79,19.2-13.67C727.21,577.72,793.38,528.83,871,522.6c57.24-4.59,110.94,14.88,158.1,47,27.94,18.91,53.24,42.18,75.34,66.95,59.09,66.63,104.69,147.93,169.82,211.77,9.38,9.19,19.15,17.9,29.16,26.19,53.41,44.27,109.61,75.81,167.67,88.84,47,10.54,94.08,10.9,146.73,5.76,9.74-1,19.89-2.29,30.33-3.83,60.16-8.88,129-20.74,193.1-14.35,30.94,3.15,59.32,9.46,78.31,19.24" transform="translate(0.27 1.54)"/><path class="cls-18" d="M54.81,0c17.37,13.52,35.84,49.48,50,89.92,29.27,83.91,44.1,182,61.14,251.8,3.9,16,7.56,29.55,11.06,39.44,25.62,72.46,41.32,164.46,85.31,226.33,42.32,59.54,107,106.65,180.75,109,70.55,2.26,134.28-35.53,190.63-77q9.68-7.08,19.11-14.26c61.39-46.59,127.51-97.51,205.89-103.65,57.76-4.52,111.77,16.24,158.82,49.73,27.84,19.71,53,43.81,74.78,69.3,58.43,68.63,103.14,151.54,169.31,215.45,9.52,9.21,19.48,17.89,29.71,26.12,54.33,43.7,113.17,73.66,173.52,84.2,48.77,8.52,97.4,6.14,150.45-1.07,9.92-1.35,20.18-3,30.67-4.89,61.15-10.8,129.89-23.87,194.77-17.45,30.46,3.07,58.82,9.62,78.88,19.87" transform="translate(0.27 1.54)"/><path class="cls-19" d="M44.05,0C61.1,13.43,78.81,49.52,92.87,91.1c28.2,83.42,44.19,184.09,61,252.86,3.95,16.25,7.64,29.84,11.14,39.57,25.94,72.29,40.62,165.49,83.72,228.1,41.81,60.74,106.73,109.66,181.05,112,71.2,2.2,135-37.38,191.22-80.63q9.63-7.4,19-14.86c61.1-48.53,127.17-101.49,206.28-107.52,58.29-4.45,112.6,17.58,159.56,52.45,27.74,20.51,52.69,45.43,74.21,71.65,57.77,70.64,101.6,155.14,168.79,219.14,9.68,9.22,19.82,17.88,30.27,26,55.25,43.14,116.73,71.5,179.36,79.55,50.57,6.49,100.7,1.37,154.18-7.9,10.11-1.76,20.46-3.79,31-6,62.12-12.74,130.78-27,196.44-20.54,30,3,58.32,9.78,79.45,20.5" transform="translate(0.27 1.54)"/><path class="cls-20" d="M33.29,0C50,13.34,67,49.56,81,92.28c27.15,82.92,44.29,186.23,60.78,253.93,4,16.47,7.74,30.11,11.21,39.69,26.4,72.07,39.92,166.52,82.14,229.88,41.28,61.94,106.46,112.66,181.36,114.91,71.85,2.14,135.7-39.24,191.8-84.26,6.4-5.12,12.71-10.29,18.93-15.45C688,580.51,754,525.52,833.88,519.58c58.82-4.38,113.42,18.94,160.28,55.19,27.64,21.3,52.42,47.05,73.66,74,57.09,72.66,100,158.76,168.27,222.84a383.9,383.9,0,0,0,30.83,26c56.16,42.59,120.27,69.46,185.2,74.91,52.35,4.55,104-3.43,157.9-14.74,10.29-2.15,20.75-4.54,31.34-7,63.1-14.7,131.69-30.12,198.13-23.64,29.49,2.91,57.8,9.95,80,21.13" transform="translate(0.27 1.54)"/><path class="cls-21" d="M22.52,0C39,13.24,55.19,49.59,69.09,93.47c26.11,82.42,44.38,188.36,60.59,255,4.06,16.69,7.83,30.4,11.3,39.81,26.7,71.92,39.2,167.56,80.56,231.66,40.74,63.15,106.19,115.67,181.66,117.86,72.5,2.09,136.41-41.1,192.37-87.88q9.57-8,18.86-16C675,581.44,740.93,524.41,821.5,518.57c59.34-4.31,114.24,20.3,161,57.92,27.53,22.1,52.14,48.67,73.09,76.33,56.43,74.67,98.49,162.36,167.76,226.52a355.66,355.66,0,0,0,31.38,25.91c57,42.11,123.84,67.27,191,70.25,54.16,2.52,107.25-8.22,161.63-21.56,10.46-2.57,21-5.3,31.68-8.08,64.05-16.66,132.58-33.23,199.8-26.73,29,2.83,57.3,10.11,80.59,21.76" transform="translate(0.27 1.54)"/><path class="cls-22" d="M11.76,0C27.88,13.15,43.41,49.63,57.2,94.65c25.1,81.92,44.47,190.5,60.41,256,4.12,16.92,7.91,30.69,11.38,39.94,27,71.76,38.39,168.65,79,233.43,40.12,64.41,105.93,118.68,182,120.8,73.16,2,137.13-42.94,193-91.5,6.36-5.52,12.61-11.09,18.77-16.64,60.24-54.35,126.16-113.41,207.47-119.16,59.86-4.23,115.06,21.66,161.74,60.65,27.43,22.9,51.86,50.3,72.52,78.68,55.76,76.68,96.94,166,167.24,230.21a341.72,341.72,0,0,0,31.94,25.83c58,41.53,127.41,65.1,196.88,65.61,56,.47,110.51-13,165.36-28.39,10.64-3,21.31-6.07,32-9.14,65-18.65,133.48-36.36,201.47-29.83,28.53,2.75,56.8,10.28,81.16,22.39" transform="translate(0.27 1.54)"/><path class="cls-23" d="M1,0C52.07,42.21,93.11,330.36,117,393c27.3,71.59,37.73,169.64,77.38,235.21S300.05,749.89,376.65,752c82.2,2.21,152.27-56.07,212.22-112.36s125.83-117.39,207.87-123C892.57,510,976.08,582.27,1031.17,661s95.38,169.58,166.72,233.9c63.59,57.33,149.63,89,235.22,86.72,69.05-1.88,135.52-24.77,201.44-45.42s134.37-39.49,203.14-32.93a236.67,236.67,0,0,1,81.73,23" transform="translate(0.27 1.54)"/></svg>