<svg id="Слой_1" data-name="Слой 1" xmlns="http://www.w3.org/2000/svg" viewBox="0 0 1913.66 688.41"><defs><style>.cls-1,.cls-10,.cls-11,.cls-12,.cls-13,.cls-14,.cls-15,.cls-16,.cls-17,.cls-18,.cls-19,.cls-2,.cls-20,.cls-21,.cls-22,.cls-23,.cls-24,.cls-25,.cls-26,.cls-3,.cls-4,.cls-5,.cls-6,.cls-7,.cls-8,.cls-9{fill:none;}.cls-1{stroke:#000;}.cls-1,.cls-10,.cls-11,.cls-12,.cls-13,.cls-14,.cls-15,.cls-16,.cls-17,.cls-18,.cls-19,.cls-2,.cls-20,.cls-21,.cls-22,.cls-23,.cls-24,.cls-25,.cls-26,.cls-3,.cls-4,.cls-6,.cls-7,.cls-8,.cls-9{stroke-miterlimit:10;}.cls-2{stroke:#0000e4;}.cls-10,.cls-11,.cls-12,.cls-13,.cls-14,.cls-15,.cls-16,.cls-17,.cls-18,.cls-19,.cls-2,.cls-20,.cls-21,.cls-22,.cls-23,.cls-24,.cls-25,.cls-26,.cls-3,.cls-4,.cls-5,.cls-6,.cls-7,.cls-8,.cls-9{stroke-width:2px;}.cls-3{stroke:#0b00e5;}.cls-4{stroke:#1500e6;}.cls-5{stroke:#2000e7;stroke-miterlimit:10;}.cls-6{stroke:#2b00e9;}.cls-7{stroke:#3500ea;}.cls-8{stroke:#4000eb;}.cls-9{stroke:#4a00ec;}.cls-10{stroke:#5500ed;}.cls-11{stroke:#6000ee;}.cls-12{stroke:#6a00ef;}.cls-13{stroke:#7500f0;}.cls-14{stroke:#8000f2;}.cls-15{stroke:#8a00f3;}.cls-16{stroke:#9500f4;}.cls-17{stroke:#9f00f5;}.cls-18{stroke:#aa00f6;}.cls-19{stroke:#b500f7;}.cls-20{stroke:#bf00f8;}.cls-21{stroke:#ca00f9;}.cls-22{stroke:#d400fb;}.cls-23{stroke:#df00fc;}.cls-24{stroke:#ea00fd;}.cls-25{stroke:#f400fe;}.cls-26{stroke:#f0f;}</style></defs><path class="cls-1" d="M68.8,398.74" transform="translate(1.11 -146.12)"/><path class="cls-1" d="M1919.42,825.43" transform="translate(1.11 -146.12)"/><path class="cls-1" d="M1919.42,677.69" transform="translate(1.11 -146.12)"/><path class="cls-2" d="M-.24,518.74c56-97.64,113.56-197.17,198.06-271.54S400.17,126.78,508.88,156c128.26,34.48,208.67,159.3,267.4,278.42s114.45,249.88,226.57,321.07c132.56,84.19,326.66,50.76,423.43-72.91,61.11-78.11,94.16-191.08,188.2-222.56,97.23-32.54,197.45,44.39,297.94,57.44" transform="translate(1.11 -146.12)"/><path class="cls-3" d="M-.24,507.39c31.17-51.88,62.81-104.17,99-152.51,29.71-39.75,62.48-76.8,100.47-108.76,72.16-60.65,167.63-100.66,260.26-91.61a257.45,257.45,0,0,1,46.17,8.78c125.22,36,203.1,159.63,260.48,277.46,57.51,118.27,113.07,248,224.58,317.59,69.33,42.89,154.67,52.67,234,35.64,74.51-16,144.26-55.74,192.76-114.28q4.74-5.72,9.3-11.65c47.54-61.74,81.53-138.57,141.91-178.91a159.93,159.93,0,0,1,43.57-20.67c59.35-17.7,119.7,3.33,180.7,25.39,39.62,14.33,79.58,29.06,119.52,33.9" transform="translate(1.11 -146.12)"/><path class="cls-4" d="M-.24,496C31.37,445.86,63.45,395.42,99.89,349c29.92-38.17,62.82-73.6,100.67-104,71.94-57.59,166-94.71,256.69-84a255.73,255.73,0,0,1,45.12,9.49c122.16,37.59,197.51,159.94,253.55,276.48,56.3,117.43,111.42,246.52,222.6,314.11,70.13,42.65,156.27,49.79,235.61,31.12,74.52-17.54,144.31-58.29,194.44-115.49q4.89-5.58,9.63-11.35c49.42-60.06,86.13-132.6,147.68-169.73a165.58,165.58,0,0,1,44-18.82c59.73-15.65,120.36,5.87,181.8,27.87,40,14.3,80.36,28.74,120.7,33.28" transform="translate(1.11 -146.12)"/><path class="cls-5" d="M-.24,484.68c32-48.48,64.57-97.07,101.3-141.58,30.14-36.6,63.16-70.4,100.87-99.14,71.72-54.54,164.44-88.75,253.12-76.31a253.75,253.75,0,0,1,44.06,10.2C618.23,217,691.05,338.11,745.73,453.36,800.82,569.94,855.67,698.17,966.35,764c71.05,42.25,157.89,46.91,237.24,26.59,74.54-19.09,144.36-60.85,196.12-116.69q5.07-5.45,10-11.06c51.3-58.38,90.8-126.48,153.44-160.56a173.82,173.82,0,0,1,44.51-16.95c60.11-13.62,121,8.4,182.9,30.34,40.29,14.27,81.15,28.41,121.88,32.66" transform="translate(1.11 -146.12)"/><path class="cls-6" d="M-.24,473.32c32.47-46.77,65.45-93.51,102.48-136.11,30.34-35,63.49-67.19,101.06-94.33,71.5-51.48,162.85-82.79,249.55-68.66a251.94,251.94,0,0,1,43,10.91c116.08,40.7,186.36,160.58,239.7,274.53C789.42,575.4,844,702.74,954.19,766.81c72,41.85,159.49,44,238.86,22.07,74.55-20.63,144.42-63.41,197.8-117.89q5.24-5.31,10.33-10.77c53.17-56.7,95.39-120.46,159.2-151.39a181.85,181.85,0,0,1,45-15.08c60.49-11.58,121.69,10.94,184,32.81,40.62,14.24,81.93,28.09,123.06,32" transform="translate(1.11 -146.12)"/><path class="cls-7" d="M-.24,462c32.91-45.07,66.32-90,103.65-130.65,30.56-33.45,63.83-64,101.26-89.52,71.28-48.42,161.26-76.83,246-61a250.22,250.22,0,0,1,41.93,11.62c113,42.25,180.78,160.9,232.77,273.56C778,580.86,832.39,707.3,942,769.64c72.88,41.44,161.1,41.16,240.49,17.54C1257.08,765,1327,721.21,1382,668.09q5.4-5.19,10.68-10.47c55-55,100-114.46,165-142.23a192.38,192.38,0,0,1,45.45-13.22c60.87-9.54,122.35,13.48,185.1,35.29,41,14.21,82.71,27.77,124.24,31.41" transform="translate(1.11 -146.12)"/><path class="cls-8" d="M-.24,450.61C33.1,407.24,67,364.21,104.58,325.43c30.78-31.88,64.17-60.79,101.46-84.71,71.07-45.36,159.67-70.87,242.42-53.36a249.21,249.21,0,0,1,40.88,12.33c110,43.8,175.2,161.22,225.84,272.58,51.44,114.05,105.58,239.57,214.68,300.19,73.81,41,162.71,38.29,242.12,13,74.58-23.72,144.51-68.52,201.15-120.29q5.56-5.06,11-10.18c56.92-53.34,104.57-108.45,170.72-133a203.91,203.91,0,0,1,45.92-11.36c61.25-7.5,123,16,186.21,37.76,41.28,14.19,83.49,27.44,125.41,30.79" transform="translate(1.11 -146.12)"/><path class="cls-9" d="M-.24,439.26c33.77-41.67,68.08-82.86,106-119.72,31-30.31,64.51-57.58,101.66-79.9,70.85-42.31,158.08-64.92,238.85-45.71a248,248,0,0,1,39.82,13C593,252.32,655.7,368.51,705,478.58c50.23,113.2,104.16,237.77,212.7,296.71,74.75,40.59,164.31,35.41,243.74,8.49C1236,758.51,1306,712.7,1364.28,662.29c3.81-3.28,7.6-6.59,11.36-9.89,58.8-51.66,109.16-102.45,176.49-123.88a216.18,216.18,0,0,1,46.39-9.49c61.62-5.59,123.68,18.55,187.31,40.23,41.61,14.16,84.27,27.12,126.59,30.17" transform="translate(1.11 -146.12)"/><path class="cls-10" d="M-.24,427.9c34.2-40,69-79.3,107.16-114.26,31.21-28.73,64.85-54.37,101.86-75.08,70.63-39.25,156.48-59,235.28-38.07a249.52,249.52,0,0,1,38.76,13.75c103.9,46.91,164.05,161.87,212,270.65,49,112.35,102.75,236,210.72,293.22,75.7,40.15,165.93,32.53,245.38,4,74.6-26.82,144.61-73.64,204.51-122.69q5.88-4.8,11.71-9.6c60.68-50,113.73-96.45,182.25-114.71a232.75,232.75,0,0,1,46.86-7.63c62-3.56,124.34,21.09,188.41,42.71,41.94,14.13,85,26.8,127.77,29.55" transform="translate(1.11 -146.12)"/><path class="cls-11" d="M-.24,416.55c34.64-38.27,69.83-75.75,108.33-108.8,31.42-27.15,65.19-51.17,102.06-70.27,70.41-36.19,154.89-53,231.71-30.42a248.49,248.49,0,0,1,37.7,14.46C580.42,270,638.25,383.61,684.63,491.19,732.66,602.6,786,725.33,893.37,780.94c76.65,39.69,167.53,29.65,247-.56C1215,752,1285,704.18,1346.56,656.49l12.06-9.31c62.55-48.29,118.3-90.46,188-105.54a252.34,252.34,0,0,1,47.33-5.76c62.39-1.53,125,23.62,189.51,45.18,42.27,14.1,85.84,26.47,129,28.93" transform="translate(1.11 -146.12)"/><path class="cls-12" d="M-.24,405.19C34.83,368.63,70.47,333,109.26,301.86c31.64-25.58,65.53-48,102.26-65.46,70.19-33.13,153.3-47,228.14-22.77a247.54,247.54,0,0,1,36.65,15.17c97.81,50,153.11,162.41,198.13,268.7,46.83,110.56,100,232.29,206.76,286.26,77.62,39.23,169.14,26.78,248.63-5.09,74.63-29.9,144.72-78.75,207.87-125.08q6.22-4.53,12.41-9c64.43-46.61,122.87-84.48,193.77-96.36a273.45,273.45,0,0,1,47.8-3.9c62.77.5,125.67,26.16,190.62,47.65,42.6,14.08,86.61,26.15,130.12,28.31" transform="translate(1.11 -146.12)"/><path class="cls-13" d="M-.24,393.84C35.26,359,71.35,325.19,110.43,296c31.85-24,65.87-44.76,102.46-60.65,70-30.07,151.71-41.08,224.58-15.12a247.76,247.76,0,0,1,35.58,15.88C567.82,287.64,620.6,398.8,664.26,503.8,709.88,613.52,762.85,734.22,869,786.59c78.58,38.75,170.75,23.9,250.26-9.62,74.64-31.45,144.77-81.3,209.55-126.28q6.38-4.41,12.74-8.73c66.31-44.93,127.44-78.5,199.54-87.19a300.42,300.42,0,0,1,48.27-2c63.16,2.54,126.33,28.7,191.72,50.13,42.93,14,87.39,25.83,131.3,27.68" transform="translate(1.11 -146.12)"/><path class="cls-14" d="M-.24,382.48c35.94-33.16,72.47-65.09,111.84-92.4,32.07-22.43,66.21-41.56,102.66-55.84,69.76-27,150.12-35.13,221-7.47a247.9,247.9,0,0,1,34.52,16.59c91.73,53.11,142,163,184.29,266.75C698.49,619,751.3,738.64,856.88,789.41c79.56,38.26,172.35,21,251.88-14.14,74.66-33,144.82-83.86,211.23-127.48q6.54-4.27,13.09-8.43c68.19-43.26,132-72.54,205.3-78a330.82,330.82,0,0,1,48.73-.17c63.55,4.58,127,31.23,192.83,52.6,43.26,14,88.18,25.5,132.48,27.06" transform="translate(1.11 -146.12)"/><path class="cls-15" d="M-.24,371.13c36.37-31.46,73.39-61.46,113-86.94,32.33-20.79,66.55-38.35,102.86-51,69.54-24,148.52-29.17,217.44.18a247.7,247.7,0,0,1,33.46,17.3C555.22,305.3,602.93,414,643.89,516.41c43.21,108,95.86,226.64,200.82,275.83,80.54,37.75,174,18.15,253.51-18.67,74.67-34.54,144.88-86.42,212.91-128.68q6.7-4.14,13.44-8.14c70.06-41.58,136.57-66.58,211.06-68.85a366.51,366.51,0,0,1,49.2,1.68c63.94,6.63,127.66,33.78,193.93,55.08,43.59,14,89,25.18,133.66,26.44" transform="translate(1.11 -146.12)"/><path class="cls-16" d="M-.24,359.77C36.56,330,74,301.87,113.94,278.3c32.54-19.22,66.87-35.22,103.06-46.21,69.28-21.05,146.93-23.22,213.87,7.82a250.83,250.83,0,0,1,32.41,18c85.63,56.22,130.81,163.69,170.43,264.81,42,107.18,94.51,224.71,198.84,272.34,81.53,37.23,175.57,15.27,255.14-23.19,74.68-36.08,144.92-89,214.58-129.88q6.87-4,13.79-7.85c71.93-39.89,141.14-60.63,216.82-59.68a408.46,408.46,0,0,1,49.67,3.55c64.32,8.67,128.33,36.31,195,57.55,43.92,14,89.73,24.86,134.83,25.82" transform="translate(1.11 -146.12)"/><path class="cls-17" d="M-.24,348.42c37.24-28.06,75.14-54.35,115.35-76,32.75-17.65,67.23-32,103.26-41.4,69.1-17.85,145.34-17.26,210.3,15.47A251.81,251.81,0,0,1,460,265.19C542.61,323,585.25,429.21,623.52,529,664.3,635.36,716.7,751.79,820.38,797.89c82.53,36.69,177.18,12.39,256.77-27.72,74.7-37.63,145-91.53,216.26-131.08q7-3.89,14.13-7.56c73.82-38.21,145.72-54.68,222.59-50.51a455.49,455.49,0,0,1,50.14,5.42c64.71,10.71,129,38.84,196.14,60,44.25,13.94,90.52,24.53,136,25.2" transform="translate(1.11 -146.12)"/><path class="cls-18" d="M-.24,337.06c37.67-26.36,76-50.88,116.52-70.55a458.14,458.14,0,0,1,103.46-36.58c68.88-14.8,143.75-11.3,206.73,23.12a253,253,0,0,1,30.29,19.42c79.55,59.32,119.65,164.34,156.58,262.86,39.55,105.5,91.84,220.8,194.88,265.38,83.53,36.14,178.79,9.52,258.39-32.24,74.71-39.18,145-94.09,218-132.28q7.2-3.75,14.47-7.27c75.69-36.53,150.29-48.74,228.35-41.34,16.48,1.57,33.28,3.92,50.61,7.28,65.06,12.89,129.65,41.39,197.24,62.5,44.58,13.91,91.3,24.21,137.19,24.58" transform="translate(1.11 -146.12)"/><path class="cls-19" d="M-.24,325.71c38.1-24.66,76.85-47.33,117.69-65.09a451.15,451.15,0,0,1,103.66-31.77c68.66-11.74,142.16-5.35,203.16,30.77a254.56,254.56,0,0,1,29.24,20.13c76.5,60.87,114,164.66,149.65,261.89,38.32,104.65,90.51,218.82,192.89,261.9,84.55,35.57,180.4,6.64,260-36.77,74.72-40.72,145.07-96.65,219.62-133.48q7.36-3.63,14.82-7c77.57-34.85,154.86-42.8,234.11-32.16,16.7,2.24,33.67,5.23,51.08,9.14,65.44,14.93,130.32,43.92,198.34,65,44.91,13.88,92.08,23.89,138.37,24" transform="translate(1.11 -146.12)"/><path class="cls-20" d="M-.24,314.35c38.53-23,77.73-43.77,118.86-59.62a446,446,0,0,1,103.85-27c68.45-8.68,140.57.61,199.61,38.41A258.4,258.4,0,0,1,450.25,287C523.71,349.45,558.7,452,593,547.94c37.09,103.82,89.19,216.83,190.92,258.42,85.56,35,182,3.77,261.65-41.29,74.74-42.27,145.13-99.21,221.3-134.68q7.53-3.5,15.17-6.69c79.44-33.17,159.44-36.87,239.87-23,16.92,2.92,34,6.56,51.55,11,65.82,17,131,46.45,199.45,67.44,45.24,13.86,92.86,23.56,139.54,23.33" transform="translate(1.11 -146.12)"/><path class="cls-21" d="M-.24,303c39-21.26,78.61-40.22,120-54.16a440.88,440.88,0,0,1,104.05-22.15c68.24-5.62,139,6.57,196,46.06A261.32,261.32,0,0,1,447,294.31c70.42,64,102.68,165.38,135.8,259.94,35.66,103,87.87,214.81,188.94,254.94,86.57,34.37,183.61.88,263.27-45.82,74.75-43.82,145.18-101.77,223-135.88q7.69-3.36,15.51-6.39c81.33-31.49,164-31,245.64-13.83,17.14,3.6,34.44,7.88,52,12.87,66.2,19,131.64,49,200.55,69.92,45.57,13.83,93.64,23.24,140.72,22.71" transform="translate(1.11 -146.12)"/><path class="cls-22" d="M-.24,291.64C39.16,272.09,79.24,255,121,243a436.68,436.68,0,0,1,104.25-17.34c68-2.56,137.39,12.53,192.47,53.71a263.37,263.37,0,0,1,26.05,22.27c67.37,65.52,97.1,165.7,128.87,259,34.45,102.21,86.56,212.78,187,251.46,87.6,33.75,185.22-2,264.9-50.34,74.77-45.36,145.24-104.32,224.67-137.08q7.84-3.24,15.85-6.1c83.2-29.81,168.62-25,251.4-4.65,17.37,4.27,34.82,9.19,52.49,14.73,66.58,21,132.31,51.53,201.65,72.39,45.9,13.8,94.42,22.92,141.9,22.09" transform="translate(1.11 -146.12)"/><path class="cls-23" d="M-.24,280.29c39.83-17.86,80.36-33.12,122.38-43.23a434.47,434.47,0,0,1,104.44-12.53c67.8.49,135.8,18.49,188.9,61.36a266.86,266.86,0,0,1,25,23c64.32,67.08,91.52,166,121.94,258,33.24,101.36,85.25,210.73,185,248C836,847.94,934.22,810,1013.93,760c74.78-46.91,145.28-106.88,226.34-138.28q8-3.11,16.2-5.81c85.07-28.13,173.25-19.25,257.15,4.52,17.61,4.92,35.22,10.51,53,16.6,67,23.08,133,54.06,202.75,74.86,46.23,13.77,95.21,22.59,143.08,21.47" transform="translate(1.11 -146.12)"/><path class="cls-24" d="M-.24,268.93C40,252.78,81,239.37,123.31,231.17A432.41,432.41,0,0,1,228,223.45c67.58,3.55,134.21,24.44,185.33,69a269,269,0,0,1,23.94,23.68c61.28,68.63,85.94,166.35,115,257,32,100.51,83.93,208.65,183,244.49,89.67,32.44,188.44-7.74,268.16-59.39,74.79-48.45,145.34-109.44,228-139.48q8.19-3,16.55-5.52c87-26.45,177.83-13.29,262.91,13.69,17.84,5.61,35.6,11.83,53.44,18.46,67.35,25.12,133.63,56.61,203.86,77.34,46.56,13.74,96,22.27,144.25,20.85" transform="translate(1.11 -146.12)"/><path class="cls-25" d="M-.24,257.58c40.7-14.45,82.12-26,124.72-32.3a431.46,431.46,0,0,1,104.84-2.91C296.68,229,361.93,252.77,411.08,299A271,271,0,0,1,434,323.42c58.24,70.18,80.36,166.67,108.09,256.05,30.81,99.66,82.63,206.57,181,241,90.7,31.75,190-10.62,269.78-63.92,74.81-50,145.39-112,229.7-140.68q8.35-2.83,16.89-5.23c88.83-24.76,182.42-7.32,268.68,22.86,18.06,6.3,36,13.15,53.91,20.33,67.73,27.16,134.3,59.14,205,79.81,46.89,13.72,96.76,22,145.43,20.23" transform="translate(1.11 -146.12)"/><path class="cls-26" d="M-.24,246.22c41.13-12.75,83-22.45,125.89-26.84C227.21,209,337.29,232.82,408.88,305.6c72.35,73.53,93.4,181.36,123,280.18s81.32,204.47,179,237.53c91.75,31.05,191.66-13.49,271.42-68.44s154.75-122.93,248.61-146.82c90.71-23.08,187-1.35,274.44,32s170.55,78.42,260.44,104.47c47.22,13.69,97.55,21.62,146.61,19.61" transform="translate(1.11 -146.12)"/></svg>